<svg xmlns="http://www.w3.org/2000/svg" viewBox="0 0 100 100" fill="none">
  <defs>
    <linearGradient id="guardianGradient" x1="0" y1="0" x2="100" y2="100" gradientUnits="userSpaceOnUse">
      <stop stop-color="#22c55e" /> <stop offset="1" stop-color="#059669" /> </linearGradient>
  </defs>
  
  <path 
    d="M50 5C50 5 15 20 15 45C15 75 50 95 50 95C50 95 85 75 85 45C85 20 50 5 50 5Z" 
    fill="url(#guardianGradient)" 
    stroke="#14532d" 
    stroke-width="2"
  />
  
  <g transform="translate(28, 28) scale(0.9)">
    <path 
        d="M25 0C25 0 35 15 35 25C35 35 25 45 25 55M25 0C25 0 15 15 15 25C15 35 25 45 25 55" 
        stroke="white" 
        stroke-width="4" 
        stroke-linecap="round" 
        stroke-linejoin="round"
    />
    <path 
        d="M25 20L32 12M25 30L35 20M25 40L32 32M25 20L18 12M25 30L15 20M25 40L18 32" 
        stroke="white" 
        stroke-width="3" 
        stroke-linecap="round" 
        stroke-linejoin="round"
    />
  </g>
</svg>